<?xml version="1.0" standalone="yes"?>
<svg xmlns="http://www.w3.org/2000/svg" width="1200" height="1200">
<path style="fill:#895599; stroke:none;" d="M164 519C148.237 524.807 144.169 547.803 153.333 561C162.824 574.667 185.055 573.855 197 564.333C202.293 560.115 205.01 554.303 207 548C201.142 545.688 192.106 559.006 183 558.5C159.213 557.178 172.757 525.444 185 519C181.759 515.465 176.433 514.464 173.333 510C168.828 503.512 167.644 490.379 177 487C188.74 482.76 185.659 496.681 183 502C199.899 510.005 199.832 482.835 185 479.333C160.541 473.558 141.647 503.118 164 519M632 522C623.285 506.23 627.781 492.356 646 489L646 569L665 569L665 493C680.139 495.789 696 498.937 696 479C690.994 479.395 686.076 482 681 482C662.049 482 644.193 474.312 626 484.167C609.26 493.234 610.84 522 632 522M410 483.333C397.572 487.648 405.762 505.976 418 501.667C430.049 497.424 422.132 479.121 410 483.333M361 487L361 536C361 544.346 359.716 554.119 363 562C366.759 571.023 381.233 572.845 389 567.667C395.57 563.286 398.801 554.569 399 547L393 547C392.412 554.444 382.093 563.038 379.333 552C377.666 545.331 379 536.867 379 530L379 485L361 487M507 487L507 569L525 569C525 556.686 522.825 542.041 525.333 530C526.243 525.633 530.763 516.426 535.667 523C543.409 533.378 534.21 550.409 540.167 562C544.586 570.599 558.608 573.429 566 566.833C571.457 561.964 572.75 553.784 574 547C567.039 547 563.579 561.657 557 555.833C553.442 552.684 554.826 546.165 555 542C555.639 526.653 555.449 508.73 536 509C531.354 509.065 528.36 510.905 525 514L525 485L507 487M883 487L883 569L901 569C901 556.686 898.825 542.041 901.333 530C902.243 525.633 906.763 516.426 911.667 523C919.409 533.378 910.21 550.409 916.167 562C920.586 570.599 934.608 573.429 942 566.833C947.457 561.964 948.75 553.784 950 547C943.039 547 939.579 561.657 933 555.833C929.442 552.684 930.826 546.165 931 542C931.639 526.653 931.449 508.73 912 509C907.354 509.065 904.36 510.905 901 514L901 485L883 487M460 507C459.728 517.338 456.446 530.586 452 540C449.012 546.327 445.1 549.343 447.333 557C455.382 584.597 494.105 564.467 501 547L489 553L481.833 519L477.667 505.5L460 507M320 561C320 573.556 300.861 573.294 304.333 588C306.999 599.291 324.412 603.246 332.833 595.667C341.094 588.232 333.865 578.634 338.5 571.167C340.294 568.277 345.431 567.205 348 564.833C352.845 560.361 354.503 553.294 355 547L349 547C348.363 555.066 344.399 559.622 338 564L338 509C332.577 509 322.941 507.059 319 511C313.185 503.071 297.298 509.424 292.667 516C285.388 526.336 283.247 543.186 288.333 555C294.134 568.472 310.197 570.803 320 561M743 547C735.116 547 716.037 572.847 709.667 552C708.952 549.661 709 547.423 709 545C723.755 545 742.294 524.121 728 511.167C719.714 503.658 704.152 508.251 697.833 516C682.365 534.971 688.59 570 716 570C721.728 570 726.257 568.627 731 565.333C736.871 561.256 741.542 553.925 743 547M784 561L786 561C787.917 570.106 800.296 572.685 808 568.833C815.875 564.896 820 555.447 820 547C811.861 547 814.135 557.333 806 557.333C800.709 557.333 800.39 551.008 800 547C798.794 534.601 800 521.466 800 509C794.577 509 784.941 507.059 781 511C774.905 502.688 760.182 509.652 755.333 516C746.33 527.786 744.534 550.893 753.833 563C760.703 571.944 780.236 574.002 784 561M876 547C866.659 547 864.071 559.961 853 559.5C837.776 558.866 840.302 537.014 842.667 527C843.519 523.388 844.516 517.456 848 515.333C854.868 511.148 854.164 524.885 854 528C866.594 531.645 867.556 516.359 859 510.333C850.419 504.291 836.276 508.22 830.333 516C820.859 528.403 818.701 556.737 833 566.667C838.167 570.255 844.014 570 850 570C856.032 570 861.383 567.735 866 563.833C870.792 559.784 874.723 553.068 876 547M1007 547C999.116 547 980.037 572.847 973.667 552C972.952 549.661 973 547.423 973 545C987.755 545 1006.29 524.121 992 511.167C983.714 503.658 968.152 508.251 961.833 516C946.365 534.971 952.59 570 980 570C985.728 570 990.257 568.627 995 565.333C1000.87 561.256 1005.54 553.925 1007 547M1032 515L1032 509L1014 509L1014 569L1032 569L1032 533C1032 527.775 1031.36 522.151 1037 519.333C1042.05 516.807 1047.7 533.757 1054.5 523C1058.02 517.437 1053.26 508.696 1047 508C1040.27 507.253 1036.53 510.466 1032 515M215 509L215 569L233 569C233 556.686 230.825 542.041 233.333 530C234.243 525.633 238.763 516.427 243.667 523C251.3 533.232 242.461 550.588 248.167 562C252.788 571.243 267.71 573.29 275 566C279.722 561.278 280.844 553.275 282 547C280.419 547 277.69 546.483 276.333 547.5C273.53 549.603 270.904 563.103 264.333 555.833C261.476 552.672 262.842 545.791 263 542C263.639 526.653 263.449 508.73 244 509C239.354 509.065 236.36 510.906 233 514L233 509L215 509M405 509C405 524.225 399.492 553.402 409.333 566C422.015 582.233 442.631 561.024 443 547L437 547C436.412 554.444 426.093 563.038 423.333 552C420.134 539.201 423 522.216 423 509L405 509M709 538C709 534.486 709.522 531.442 710 528C710.292 525.899 710.523 524.013 711.333 522C712.831 518.281 717.735 509.888 721.5 517C725.934 525.376 717.681 537.772 709 538M973 538C973 534.486 973.522 531.442 974 528C974.292 525.899 974.523 524.012 975.333 522C976.831 518.281 981.735 509.888 985.5 517C989.934 525.376 981.681 537.772 973 538M315 515.333C320.032 515.543 320 520.177 320 524C320 531.349 324.063 556.662 311 554.667C298.628 552.776 302.365 514.807 315 515.333M777 515.333C782.036 515.403 782 520.278 782 524C782 531.044 786.148 559.354 774 557.667C762.663 556.092 766.37 530.282 769 523C770.235 519.58 772.874 515.276 777 515.333M465 524C465.799 534.125 473.054 545.606 469.833 556C467.561 563.333 456.442 561.668 455 555C464.748 553.974 458.053 548.054 458.333 543C458.587 538.441 461.754 526.645 465 524M320 576C320 578.614 320.288 581.406 320 584C318.838 594.459 305.862 586.327 314 579.333C315.757 577.824 317.922 576.82 320 576M245 670C240.781 661.561 240.8 653.026 251 649L251 698L260 698L260 644C251.245 644 242.824 645.093 237.333 653C231.885 660.845 235.389 669.747 245 670M536 670C531.372 660.745 530.72 653.594 540 647L550.667 674L551 698L560 698L560.333 675L571 644C563.075 644.209 560.144 663.212 558 670C555.039 664.078 553.277 648.198 547.833 644.5C533.153 634.529 515.716 669.466 536 670M715 669C706.774 671.381 704.617 683.9 708.167 691C712.849 700.365 726.013 701.458 734 695.833C737.872 693.107 742.004 688.77 741 684C735.354 686.07 732.968 693.773 725 692.667C709.548 690.521 715.618 672.938 725 668C722.597 665.816 719.525 664.327 718 661C713.236 650.607 729.878 643.321 730 652C730.027 653.946 728.49 656.139 728 658C736.893 661.744 738.182 649.606 732 645.333C724.912 640.434 712.73 645.157 710.333 653C708.373 659.415 712.172 663.883 715 669M854 647.5C848.462 650.768 854 660.185 859.833 656.5C865.352 653.015 859.683 644.146 854 647.5M849 685C844.497 685.487 844.766 692 841 692C836.914 692 838 684.41 838 682L838 648C835.895 648 831.914 647.203 830.5 649.167C828.886 651.409 830 657.325 830 660C830 668.785 826.287 688.94 832.333 695.833C840.014 704.589 848.437 692.131 849 685M908 698L916 698C916 690.524 914.519 681.256 916.333 674C917.183 670.602 921.17 665.149 924.667 669.167C929.833 675.102 923.315 687.09 927.5 694C934.248 705.142 944.346 693.283 945 685C941.165 685.415 939.26 693.188 936 691.667C933.345 690.427 934 686.312 934 684C934 678.862 935.608 670.443 932.667 666C929.393 661.055 919.269 659.606 917 666L916 666L916 648L908.5 649.167L908 662L908 698M952 648L954 682L959 682L961 648L952 648M331 659L331 716C342.261 715.704 339 704.551 339 696C364.449 711.403 364.809 648.379 339 664L339 659L331 659M455 667C455 673.68 455.778 680.732 453.167 687C452.052 689.675 449.478 693.89 446 691.667C440.944 688.434 444 667.66 444 662L436 662L436 678C436 681.918 435.568 686.11 436 690C436.868 697.807 447.367 700.773 453 695.833C459.299 690.31 460.325 678.803 460 671C459.824 666.768 458.167 658.143 452 660.167C446.126 662.094 451.162 666.899 455 667M883 661C882.302 669.846 873.833 679.986 874.167 688C874.996 707.903 898.895 693.817 904 685L897 687C896.863 681.804 894.894 663.738 890.667 660.5C888.747 659.03 885.06 660.621 883 661M274 662L274 698L282 698L282.333 674L287 667.667L291 674L291 698L299 698C299 690.478 296.836 679.093 299.333 672C300.418 668.92 303.961 666.058 306.667 669.167C311.833 675.103 305.315 687.09 309.5 694C316.311 705.247 326.338 693.38 327 685C323.165 685.415 321.26 693.188 318 691.667C315.142 690.333 316 685.478 316 683C316 674.673 316.274 655.696 302 662.833C300.018 663.824 298.57 665.471 297 667C294.918 659.807 286.784 661.223 282 665C281.5 660.75 277.574 662 274 662M368 662L368 698L376 698C376 691.668 373.048 674.551 378 670.167C381.252 667.288 386.108 672.156 388.5 668.833C394.359 660.696 379.541 662.738 376 666L376 662L368 662M435 669C432.451 669.671 427.759 673.774 425.167 672.5C422.972 671.422 422.945 667.838 421.667 666C418.795 661.872 412.646 660.914 408 662.333C386.552 668.887 402.682 712.318 420 695C425.004 689.995 422.14 683.341 425.5 678C428.374 673.431 434.282 675.817 435 669M502 685C496.117 685.672 482.397 701.69 481 684C489.493 683.33 503.999 671.411 493 663.333C487.352 659.185 478.747 662.88 475.333 668C468.358 678.463 471.215 698.205 486 698C489.354 697.953 492.183 697.238 495 695.333C498.606 692.896 501.114 689.207 502 685M612 669C609.451 669.671 604.759 673.774 602.167 672.5C599.972 671.422 599.945 667.838 598.667 666C595.795 661.872 589.646 660.914 585 662.333C563.552 668.887 579.682 712.318 597 695C602.005 689.995 599.14 683.341 602.5 678C605.374 673.431 611.282 675.817 612 669M613 662C613 670.747 610.28 684.997 614 693C617.242 699.976 628.193 699.925 631 693L632 693C636.983 705.625 648.316 693.663 649 685L640 693L638 662L630 662C630 667.321 633.178 692.333 625 692.333C621.495 692.333 621.036 688.562 621 686C620.889 678.003 621 669.997 621 662L613 662M654 662L654 698L662 698C662 691.668 659.048 674.551 664 670.167C667.252 667.288 672.108 672.156 674.5 668.833C680.358 660.697 665.541 662.738 662 666L662 662L654 662M746 662L746 698L754 698C754 690.524 752.519 681.256 754.333 674C755.183 670.602 759.17 665.149 762.667 669.167C767.833 675.102 761.315 687.09 765.5 694C772.248 705.142 782.346 693.283 783 685C779.165 685.415 777.26 693.188 774 691.667C771.345 690.427 772 686.312 772 684C772 678.862 773.608 670.443 770.667 666C767.405 661.073 757.036 659.522 755 666L754 666L754 662L746 662M806 695C805.309 701.564 796.047 702.373 797 710C797.802 716.417 806.708 718.223 811 714C814.924 710.139 814 703.977 814 699C821.606 698.4 824.815 692.047 825 685L814 696L814 662L805 664C801.203 659.34 793 662.596 790 667C781.202 679.916 787.212 703.9 806 695M853 662C853 670.799 850.065 686.139 854.167 694C860.25 705.659 871.364 693.059 872 685L864 692L861 685L861 662L853 662M344 666.333C353.396 666.333 352.736 694.382 343 693.833C336.465 693.465 336.263 666.333 344 666.333M414 666.333C421.173 666.03 416.072 671.068 416.667 674C417.565 678.425 424.906 691.131 414 692.667C403.471 694.15 404.215 666.747 414 666.333M481 681C481 678.678 480.796 676.277 481.333 674C485.31 657.16 499.428 677.605 481 681M591 666.333C598.172 666.03 593.072 671.068 593.667 674C594.565 678.425 601.906 691.131 591 692.667C580.471 694.15 581.215 666.747 591 666.333M802 666.333C808.799 666.333 808.122 689.985 801 691.667C791.039 694.019 791.633 666.333 802 666.333M886 672C886.42 677.322 889.989 683.711 888.667 689C887.214 694.809 881.301 692.661 879 689C882.601 687.868 883.645 676.496 884 672L886 672M954 688.5C948.965 691.471 953.139 700.603 959 697.5C965.334 694.147 959.644 685.169 954 688.5M806 703C806 718.187 795.701 705.981 806 703z"/>
</svg>
