<svg version="1.1" id="Layer_1" xmlns="http://www.w3.org/2000/svg" xmlns:xlink="http://www.w3.org/1999/xlink" x="-100px" y="-100px" viewBox="0 0 345 120.1" enable-background="new 0 0 345 120.1" xml:space="preserve">
    <linearGradient id="SVGID_1_" gradientUnits="userSpaceOnUse" x1="30.5517" y1="57.4862" x2="83.6498" y2="57.4862"><stop offset="0" style="stop-color:#BE0E1B"></stop><stop offset="8.473077e-02" style="stop-color:#C50D1C"></stop><stop offset="0.2" style="stop-color:#D70A20"></stop><stop offset="0.49" style="stop-color:#E6735E"></stop><stop offset="0.4954" style="stop-color:#E06454"></stop><stop offset="0.5072" style="stop-color:#D64942"></stop><stop offset="0.5208" style="stop-color:#CD3334"></stop><stop offset="0.5366" style="stop-color:#C62229"></stop><stop offset="0.5562" style="stop-color:#C11721"></stop><stop offset="0.5837" style="stop-color:#BF101C"></stop><stop offset="0.66" style="stop-color:#BE0E1B"></stop><stop offset="0.7068" style="stop-color:#C62228"></stop><stop offset="0.8024" style="stop-color:#DB574B"></stop><stop offset="0.85" style="stop-color:#E6735E"></stop><stop offset="1" style="stop-color:#BE0E1B"></stop></linearGradient><path fill="url(#SVGID_1_)" d="M83.6,57.1c0-13.4-9.6-14.7-16.8-8.7c-4.6,3.8-10.6,10.7-10.6,4.1c0-15.5-15.5-8.6-25.7,4.6l0,14.3 c10.2-13.3,25.7-20.1,25.7-4.6c0,6.5,5.9-0.3,10.6-4.1c6.6-5.4,15.1-4.8,16.6,5.3h0.2V57.1L83.6,57.1z"></path><linearGradient id="SVGID_2_" gradientUnits="userSpaceOnUse" x1="30.5617" y1="38.3255" x2="83.6498" y2="38.3255"><stop offset="0" style="stop-color:#BE0E1B"></stop><stop offset="8.473077e-02" style="stop-color:#C50D1C"></stop><stop offset="0.2" style="stop-color:#D70A20"></stop><stop offset="0.49" style="stop-color:#E6735E"></stop><stop offset="0.4954" style="stop-color:#E06454"></stop><stop offset="0.5072" style="stop-color:#D64942"></stop><stop offset="0.5208" style="stop-color:#CD3334"></stop><stop offset="0.5366" style="stop-color:#C62229"></stop><stop offset="0.5562" style="stop-color:#C11721"></stop><stop offset="0.5837" style="stop-color:#BF101C"></stop><stop offset="0.66" style="stop-color:#BE0E1B"></stop><stop offset="0.7068" style="stop-color:#C62228"></stop><stop offset="0.8024" style="stop-color:#DB574B"></stop><stop offset="0.85" style="stop-color:#E6735E"></stop><stop offset="1" style="stop-color:#BE0E1B"></stop></linearGradient><path fill="url(#SVGID_2_)" d="M83.6,38.3c0-13.4-9.6-14.7-16.8-8.7c-4.6,3.8-10.6,10.7-10.6,4.1c0-15.5-15.5-8.6-25.7,4.6v13.6 C41,39.4,56.3,32.5,56.3,48c0,6.5,5.9-0.4,10.6-4.1c6.6-5.4,15.1-4.8,16.6,5.3h0.2V38.3L83.6,38.3z"></path><path fill="#D70A20" d="M143.2,31.2c-1.6,0-3.1,0.4-4.5,1.2c-1.3,0.7-2.3,1.8-3,3.2c-0.5-1.4-1.3-2.5-2.5-3.2 c-1.3-0.8-2.7-1.2-4.3-1.2c-1.9,0-3.6,0.4-4.8,1.3c-1.2,0.8-2.2,1.9-2.9,3.3v-3.8h-2.9v23.9h3.2V42.4c0-1.2,0.1-2.4,0.4-3.4 c0.3-1,0.7-1.9,1.2-2.7c0.5-0.8,1.3-1.4,2.1-1.8c0.9-0.4,1.9-0.6,3.1-0.6c0.9,0,1.6,0.1,2.3,0.4c0.6,0.3,1.1,0.7,1.5,1.2 c0.4,0.5,0.6,1.1,0.8,1.8c0.2,0.7,0.3,1.5,0.3,2.2v16.1h3.1V42.3c0-1.1,0.1-2.2,0.3-3.2c0.2-1,0.5-1.9,1-2.7 c0.5-0.8,1.1-1.4,1.9-1.9c0.8-0.5,1.8-0.7,3-0.7c2,0,3.5,0.5,4.2,1.5c0.8,1,1.2,2.5,1.2,4.4v16h3.1V39.6 C151.1,34,148.4,31.2,143.2,31.2z"></path><path fill="#D70A20" d="M176.1,53.1c-1,0-1.6-0.5-1.6-1.6V38.9c0-1.6-0.3-2.9-0.8-3.9c-0.5-1-1.2-1.8-2-2.4 c-0.9-0.6-1.8-0.9-2.8-1.1c-2.4-0.5-4.9-0.4-6.9,0.2c-1.1,0.3-2.1,0.8-3,1.4c-0.9,0.7-1.5,1.5-2,2.5c-0.5,1-0.8,2.2-0.9,3.6l0,0.1 h3.2l0-0.1c0.1-1.9,0.7-3.2,1.8-4.1c1.1-0.8,2.6-1.3,4.4-1.3c0.9,0,1.7,0.1,2.4,0.2c0.7,0.1,1.4,0.4,1.9,0.7c0.5,0.4,1,0.8,1.3,1.4 c0.3,0.6,0.5,1.4,0.5,2.3c0,0.6-0.1,1.1-0.2,1.5c-0.2,0.4-0.4,0.7-0.7,0.9c-0.3,0.2-0.7,0.4-1.1,0.4c-0.5,0.1-1,0.2-1.6,0.2 c-1.6,0.2-3.1,0.4-4.6,0.6c-1.5,0.2-2.9,0.6-4.1,1c-1.2,0.5-2.2,1.2-3,2.2c-0.7,0.9-1.1,2.3-1.1,3.9c0,1.2,0.2,2.3,0.6,3.1 c0.4,0.9,1,1.6,1.7,2.2c0.7,0.6,1.6,1,2.6,1.3c1,0.3,2,0.4,3.1,0.4c1.2,0,2.2-0.1,3-0.3c0.8-0.2,1.6-0.5,2.3-0.9 c0.7-0.4,1.3-0.9,1.8-1.5c0.5-0.5,1-1.2,1.5-1.8c0,0.5,0,0.9,0.1,1.4c0.1,0.5,0.2,1,0.5,1.4c0.3,0.4,0.6,0.7,1.1,0.9 c0.5,0.2,1.1,0.3,1.8,0.3c0.4,0,0.7,0,1,0c0.3,0,0.6-0.1,0.9-0.1l0.1,0v-2.7l-0.2,0.1C176.7,53,176.5,53.1,176.1,53.1z M171.4,43 v3.5c0,1.1-0.2,2.2-0.7,3c-0.4,0.9-1,1.7-1.7,2.3c-0.7,0.6-1.6,1.1-2.6,1.4c-1.6,0.5-3.4,0.7-5,0.2c-0.6-0.2-1.2-0.5-1.7-0.9 c-0.5-0.4-0.9-0.9-1.1-1.4c-0.3-0.5-0.4-1.2-0.4-1.9c0-1.1,0.3-2,1-2.6c0.7-0.6,1.5-1.1,2.6-1.4c1.1-0.3,2.2-0.6,3.5-0.7 c1.3-0.2,2.6-0.4,3.8-0.6c0.4-0.1,0.9-0.2,1.4-0.3C170.9,43.4,171.2,43.3,171.4,43z"></path><path fill="#D70A20" d="M196.9,47.1c-0.1,1-0.3,1.8-0.7,2.7c-0.4,0.8-0.9,1.5-1.5,2.1c-0.6,0.6-1.3,1-2.1,1.4 c-0.8,0.3-1.6,0.5-2.5,0.5c-1.3,0-2.5-0.3-3.6-0.9c-1-0.6-1.9-1.3-2.5-2.2c-0.7-0.9-1.2-2-1.5-3.2c-0.4-1.2-0.5-2.4-0.5-3.6 c0-1.2,0.2-2.5,0.5-3.6c0.3-1.2,0.9-2.3,1.5-3.2c0.7-0.9,1.5-1.7,2.5-2.3c1-0.6,2.2-0.9,3.6-0.9c1.9,0,3.4,0.5,4.4,1.5 c1,1,1.8,2.4,2.2,4.1l0,0.1h3.1l0-0.1c-0.3-2.7-1.4-4.8-3.2-6.2c-1.8-1.4-4-2-6.5-2c-1.8,0-3.4,0.3-4.8,1c-1.4,0.7-2.6,1.6-3.5,2.7 c-1,1.1-1.7,2.5-2.2,4c-0.5,1.5-0.7,3.2-0.7,4.9c0,1.7,0.2,3.3,0.7,4.9c0.5,1.5,1.2,2.9,2.2,4c1,1.1,2.2,2.1,3.5,2.7 c1.4,0.7,3,1,4.8,1c2.7,0,4.9-0.8,6.7-2.4c1.7-1.6,2.8-3.9,3.2-6.8l0-0.1h-3.2L196.9,47.1z"></path><path fill="#D70A20" d="M228.8,31.2c-1.6,0-3.1,0.4-4.5,1.2c-1.3,0.7-2.3,1.8-3,3.2c-0.5-1.4-1.3-2.5-2.5-3.2 c-1.3-0.8-2.7-1.2-4.3-1.2c-1.9,0-3.6,0.4-4.8,1.3c-1.2,0.8-2.2,1.9-2.9,3.3v-3.8h-2.9v23.9h3.2V42.4c0-1.2,0.1-2.4,0.4-3.4 c0.3-1,0.7-1.9,1.2-2.7c0.6-0.8,1.3-1.4,2.1-1.8c0.9-0.4,1.9-0.6,3.1-0.6c0.9,0,1.6,0.1,2.3,0.4c0.6,0.3,1.1,0.7,1.5,1.2 c0.4,0.5,0.6,1.1,0.8,1.8c0.2,0.7,0.3,1.5,0.3,2.2v16.1h3.1V42.3c0-1.1,0.1-2.2,0.3-3.2c0.2-1,0.5-1.9,1-2.7 c0.5-0.8,1.1-1.4,1.9-1.9c0.8-0.5,1.8-0.7,3-0.7c2,0,3.5,0.5,4.2,1.5c0.8,1,1.2,2.5,1.2,4.4v16h3.1V39.6 C236.7,34,234.1,31.2,228.8,31.2z"></path><polygon fill="#D70A20" points="242.9,55.7 245.2,55.7 246.1,55.7 246.1,53.4 246.1,51.9 246.1,49.7 246.1,46.4 246.1,43 246.1,38.2 246.1,35.8 246.1,33.6 246.1,31.9 244.5,31.9 242.9,31.9 242.9,35.5 242.9,38.2 242.9,40.7 242.9,43.3 242.9,46.3 242.9,50.3 242.9,52.9 "></polygon><polygon fill="#D70A20" points="252.3,55.7 253.8,55.7 255.4,55.7 255.4,53.7 255.4,50.5 255.4,47.4 255.4,40.3 255.4,37 255.4,34.1 255.4,32.8 255.4,28.7 255.4,24.8 255.4,22.8 253.5,22.8 252.3,22.8 252.3,28.2 252.3,31.6 252.3,37 252.3,42.4 252.3,45.4 252.3,50 252.3,52.2 "></polygon><polygon fill="#D70A20" points="261.7,55.7 263.4,55.7 264.8,55.7 264.8,52 264.8,48.8 264.8,45.4 264.8,43.2 264.8,41 264.8,37.5 264.8,34.1 264.8,30.5 264.8,27.7 264.8,25.7 264.8,22.8 263.5,22.8 262.8,22.8 261.7,22.8 261.7,24.6 261.7,27.3 261.7,28.2 261.7,29.9 261.7,33.6 261.7,36.5 261.7,40.4 261.7,44.9 261.7,48.6 261.7,52.2 "></polygon><path fill="#D70A20" d="M289.9,53.1c-1.1,0-1.6-0.5-1.6-1.6V38.9c0-1.6-0.3-2.9-0.8-3.9c-0.5-1-1.2-1.8-2.1-2.4 c-0.8-0.6-1.8-0.9-2.8-1.1c-2.4-0.5-4.9-0.4-6.9,0.2c-1.1,0.3-2.1,0.8-3,1.4c-0.9,0.7-1.5,1.5-2,2.5c-0.5,1-0.8,2.2-0.9,3.6l0,0.1 h3.2v-0.1c0.1-1.9,0.7-3.2,1.8-4.1c1.1-0.8,2.6-1.3,4.4-1.3c0.9,0,1.7,0.1,2.4,0.2c0.7,0.1,1.4,0.4,1.9,0.7c0.5,0.4,1,0.8,1.3,1.4 c0.3,0.6,0.5,1.4,0.5,2.3c0,0.6-0.1,1.1-0.2,1.5c-0.2,0.4-0.4,0.7-0.7,0.9c-0.3,0.2-0.7,0.4-1.1,0.4c-0.5,0.1-1,0.2-1.6,0.2 c-1.6,0.2-3.1,0.4-4.6,0.6c-1.5,0.2-2.9,0.6-4.1,1c-1.2,0.5-2.2,1.2-3,2.2c-0.7,0.9-1.1,2.3-1.1,3.9c0,1.2,0.2,2.3,0.6,3.1 c0.4,0.9,1,1.6,1.7,2.2c0.7,0.6,1.6,1,2.6,1.3c1,0.3,2,0.4,3.1,0.4c1.2,0,2.2-0.1,3-0.3c0.8-0.2,1.6-0.5,2.3-0.9 c0.7-0.4,1.3-0.9,1.8-1.5c0.5-0.5,1-1.2,1.4-1.8c0,0.5,0,1,0.1,1.4c0.1,0.5,0.2,1,0.5,1.4c0.3,0.4,0.6,0.7,1.1,0.9 c0.5,0.2,1.1,0.3,1.8,0.3c0.4,0,0.7,0,1,0c0.3,0,0.6-0.1,0.9-0.1l0.1,0v-2.7l-0.2,0.1C290.5,53,290.2,53.1,289.9,53.1z M285.2,43 v3.5c0,1.1-0.2,2.2-0.6,3c-0.4,0.9-1,1.7-1.8,2.3c-0.7,0.6-1.6,1.1-2.6,1.4c-1.6,0.5-3.4,0.7-5,0.2c-0.6-0.2-1.2-0.5-1.6-0.9 c-0.5-0.4-0.9-0.9-1.1-1.4c-0.3-0.5-0.4-1.2-0.4-1.9c0-1.1,0.3-2,1-2.6c0.7-0.6,1.5-1.1,2.6-1.4c1.1-0.3,2.2-0.6,3.5-0.7 c1.3-0.2,2.6-0.4,3.8-0.6c0.4-0.1,0.9-0.2,1.4-0.3C284.6,43.4,285,43.3,285.2,43z"></path><path fill="#D70A20" d="M313.7,36.6c-0.3-1.1-0.8-2.1-1.4-2.9c-0.7-0.8-1.6-1.4-2.7-1.8c-1.1-0.4-2.5-0.7-4.2-0.7 c-1.7,0-3.3,0.4-4.7,1.3c-1.3,0.8-2.3,1.9-2.8,3.1v-3.8h-3.1v23.9h3.1V41.8c0-1.1,0.2-2.2,0.6-3.2c0.4-1,0.8-1.8,1.4-2.5 c0.6-0.7,1.4-1.3,2.2-1.7c0.9-0.4,1.9-0.6,3-0.6c1.1,0,2.1,0.2,2.8,0.5c0.8,0.4,1.4,0.8,1.8,1.5c0.4,0.6,0.8,1.4,0.9,2.2 c0.2,0.8,0.3,1.8,0.3,2.8v14.9h3.1V40.4C314.1,39,314,37.7,313.7,36.6z"></path><rect x="99.8" y="19.5" fill="#878787" width="2" height="77.7"></rect><path fill="#D70A20" d="M244.5,22.7c-1.1,0-2,0.9-2,2c0,1.1,0.9,2,2,2c1.1,0,2-0.9,2-2C246.5,23.6,245.6,22.7,244.5,22.7z"></path><path fill="#4A4A49" d="M128.2,71.4c-3.6,0-6.5,1.4-8.4,4c-1.7,2.3-2.6,5.4-2.6,8.8c0,8.1,4.1,12.9,11,12.9c5.8,0,9.3-2.9,10.6-8.7 l0-0.2h-3.2l0,0.1c-1,4-3.6,6.1-7.4,6.1c-5.3,0-7.7-4.6-7.8-9.2h18.5l0-0.1c0.2-4.4-1.1-8.4-3.5-10.8 C133.6,72.3,131.2,71.4,128.2,71.4z M120.4,82.4c0.5-4.2,3.1-8.3,7.8-8.3c4.7,0,7.3,4.2,7.5,8.3H120.4z"></path><path fill="#4A4A49" d="M161,76.4c-1.3-3-4.5-5-8.3-5c-8.1,0-11,6.9-11,12.9c0,3.5,1,6.7,2.7,9c1.9,2.5,4.8,3.9,8.3,3.9	c3.6,0,7.2-2.1,8.6-5v4.3h3V62.8H161V76.4z M161,84.2c0,7.5-4.3,10.2-8.3,10.2c-5.7,0-7.8-5.5-7.8-10.2c0-4.7,2-10.1,7.8-10.1	C156.7,74.1,161,76.8,161,84.2z"></path><path fill="#4A4A49" d="M186.2,84.9c0,7-3.8,9.5-7.1,9.5c-4.3,0-6.2-1.9-6.3-6.5V72.1h-3.2v15.8c0,6.2,2.9,9.3,8.6,9.3 c3.6,0,6.7-1.8,8.3-4.8v4.1h3V72.1h-3.2V84.9z"></path><path fill="#4A4A49" d="M212,87.6c-0.4,3.9-3.3,6.8-6.9,6.8c-5.7,0-8.3-5.3-8.3-10.2c0-4.9,2.6-10.1,8.3-10.1c3.6,0,5.9,2,6.7,5.7 	l0,0.1h3.2l0-0.1c-0.6-5.2-4.3-8.4-9.9-8.4c-3.5,0-6.5,1.3-8.6,3.8c-1.9,2.3-3,5.5-3,9c0,3.5,1.1,6.7,3,9c2.1,2.5,5,3.8,8.6,3.8 c5.4,0,9.3-3.6,10.1-9.4l0-0.1H212L212,87.6z"></path><path fill="#4A4A49" d="M239.4,93.7c-1.1,0-1.6-0.6-1.6-1.7V79.2c0-5.2-3-7.9-9-7.9c-6.1,0-9.6,2.9-9.9,8.2l0,0.1h3.2l0-0.1 c0-2,0.9-5.5,6.3-5.5c4.2,0,6.2,1.5,6.2,4.8c0,2.6-1.3,2.9-3.7,3.1c-0.4,0.1-0.9,0.1-1.3,0.1c-6,0.7-11.7,1.3-11.7,7.7 c0,4.4,3.1,7.2,8.2,7.2c4.6,0,6.7-1.7,8.8-4.8c0.1,3.4,1.4,4.1,3.6,4.1c0.8,0,1.3,0,1.9-0.2l0.1,0v-2.8l-0.2,0.1 C240,93.6,239.7,93.7,239.4,93.7z M229.6,84.7c0.8-0.1,1.7-0.2,2.5-0.4c0.7-0.1,1.9-0.3,2.4-0.9V87c0,2-0.7,3.7-2,5 c-1.5,1.5-3.8,2.4-6.3,2.4c-3.4,0-5.2-2.4-5.2-4.6C221,85.9,225.2,85.3,229.6,84.7z"></path><path fill="#4A4A49" d="M248.4,64.8h-3.2v7.2H241v2.7h4.2v16.4c0,2.2,0.3,3.5,1.2,4.3c0.8,0.8,2.1,1.2,4.2,1.2c0.4,0,0.9,0,1.3,0 c0.4,0,0.9,0,1.3,0h0.1v-2.8l-0.1,0c-0.8,0.1-1.7,0.1-2.5,0.1c-1.9-0.1-2.3-1-2.3-3.1V74.8h4.9v-2.7h-4.9V64.8z"></path><path fill="#4A4A49" d="M278.3,71.4c-3.5,0-6.5,1.3-8.6,3.8c-1.9,2.3-3,5.5-3,9c0,3.5,1.1,6.7,3,9c2.1,2.5,5,3.8,8.6,3.8 s6.5-1.3,8.6-3.8c1.9-2.3,3-5.5,3-9c0-3.5-1.1-6.7-3-9C284.8,72.7,281.8,71.4,278.3,71.4z M278.3,94.4c-5.7,0-8.3-5.3-8.3-10.2 c0-4.9,2.6-10.1,8.3-10.1s8.3,5.3,8.3,10.1C286.7,89.1,284,94.4,278.3,94.4z"></path><path fill="#4A4A49" d="M304.9,71.4c-3.4,0-6.5,1.9-7.7,4.6v-3.9H294v24.3h3.2V82.2c0.1-4.9,3.1-8.1,7.4-8.1c4.1,0,6,2.3,6,7.2v15.2 h3.2V80.8C313.9,74.3,311.1,71.4,304.9,71.4z"></path><path fill="#4A4A49" d="M258.4,72.1h1.4h1.8v3v2.6V80v4v2v2.5v3.1v2.3v2.5H260h-1.6v-2.2v-3.1v-2.3V86v-2.9v-3.7v-2.8v-2.2V72.1z M260,63.2c-1.1,0-2,0.9-2,2c0,1.1,0.9,2,2,2c1.1,0,2-0.9,2-2C262,64.1,261.1,63.2,260,63.2z"></path></svg>
